<mxfile host="app.diagrams.net" agent="Mozilla/5.0 (Windows NT 10.0; Win64; x64) AppleWebKit/537.36 (KHTML, like Gecko) Chrome/131.0.0.0 Safari/537.36" version="24.8.4">
  <diagram name="Halaman-1" id="wHQNn0H73XZBpNHDt3gx">
    <mxGraphModel dx="1193" dy="740" grid="1" gridSize="10" guides="1" tooltips="1" connect="1" arrows="1" fold="1" page="1" pageScale="1" pageWidth="1169" pageHeight="827" math="0" shadow="0">
      <root>
        <mxCell id="0" />
        <mxCell id="1" parent="0" />
        <mxCell id="lv-tE8IJ_xCt58kdAHQm-1" value="&lt;span style=&quot;font-size: 19px;&quot;&gt;Alur Get Data From Neofeeder&lt;/span&gt;" style="text;html=1;align=center;verticalAlign=middle;whiteSpace=wrap;rounded=0;" vertex="1" parent="1">
          <mxGeometry x="390" y="110" width="320" height="30" as="geometry" />
        </mxCell>
        <mxCell id="lv-tE8IJ_xCt58kdAHQm-2" value="WS2RUNLOOP()" style="rounded=0;whiteSpace=wrap;html=1;" vertex="1" parent="1">
          <mxGeometry x="480" y="320" width="120" height="60" as="geometry" />
        </mxCell>
        <mxCell id="lv-tE8IJ_xCt58kdAHQm-4" style="edgeStyle=orthogonalEdgeStyle;rounded=0;orthogonalLoop=1;jettySize=auto;html=1;entryX=0.5;entryY=0;entryDx=0;entryDy=0;" edge="1" parent="1" source="lv-tE8IJ_xCt58kdAHQm-3" target="lv-tE8IJ_xCt58kdAHQm-2">
          <mxGeometry relative="1" as="geometry" />
        </mxCell>
        <mxCell id="lv-tE8IJ_xCt58kdAHQm-3" value="START" style="ellipse;whiteSpace=wrap;html=1;aspect=fixed;" vertex="1" parent="1">
          <mxGeometry x="500" y="170" width="80" height="80" as="geometry" />
        </mxCell>
        <mxCell id="lv-tE8IJ_xCt58kdAHQm-10" style="edgeStyle=orthogonalEdgeStyle;rounded=0;orthogonalLoop=1;jettySize=auto;html=1;" edge="1" parent="1" source="lv-tE8IJ_xCt58kdAHQm-5" target="lv-tE8IJ_xCt58kdAHQm-8">
          <mxGeometry relative="1" as="geometry" />
        </mxCell>
        <mxCell id="lv-tE8IJ_xCt58kdAHQm-11" value="Yes" style="edgeLabel;html=1;align=center;verticalAlign=middle;resizable=0;points=[];" vertex="1" connectable="0" parent="lv-tE8IJ_xCt58kdAHQm-10">
          <mxGeometry x="-0.2276" relative="1" as="geometry">
            <mxPoint x="-12" y="-10" as="offset" />
          </mxGeometry>
        </mxCell>
        <mxCell id="lv-tE8IJ_xCt58kdAHQm-13" style="edgeStyle=orthogonalEdgeStyle;rounded=0;orthogonalLoop=1;jettySize=auto;html=1;" edge="1" parent="1" source="lv-tE8IJ_xCt58kdAHQm-5" target="lv-tE8IJ_xCt58kdAHQm-12">
          <mxGeometry relative="1" as="geometry" />
        </mxCell>
        <mxCell id="lv-tE8IJ_xCt58kdAHQm-14" value="No" style="edgeLabel;html=1;align=center;verticalAlign=middle;resizable=0;points=[];" vertex="1" connectable="0" parent="lv-tE8IJ_xCt58kdAHQm-13">
          <mxGeometry x="-0.504" y="1" relative="1" as="geometry">
            <mxPoint as="offset" />
          </mxGeometry>
        </mxCell>
        <mxCell id="lv-tE8IJ_xCt58kdAHQm-5" value="CHEK&lt;div&gt;TOKEN&lt;/div&gt;" style="rhombus;whiteSpace=wrap;html=1;" vertex="1" parent="1">
          <mxGeometry x="500" y="430" width="80" height="80" as="geometry" />
        </mxCell>
        <mxCell id="lv-tE8IJ_xCt58kdAHQm-6" style="edgeStyle=orthogonalEdgeStyle;rounded=0;orthogonalLoop=1;jettySize=auto;html=1;entryX=0.5;entryY=0.088;entryDx=0;entryDy=0;entryPerimeter=0;" edge="1" parent="1" source="lv-tE8IJ_xCt58kdAHQm-2" target="lv-tE8IJ_xCt58kdAHQm-5">
          <mxGeometry relative="1" as="geometry" />
        </mxCell>
        <mxCell id="lv-tE8IJ_xCt58kdAHQm-16" style="edgeStyle=orthogonalEdgeStyle;rounded=0;orthogonalLoop=1;jettySize=auto;html=1;entryX=0.5;entryY=0;entryDx=0;entryDy=0;" edge="1" parent="1" source="lv-tE8IJ_xCt58kdAHQm-8" target="lv-tE8IJ_xCt58kdAHQm-15">
          <mxGeometry relative="1" as="geometry" />
        </mxCell>
        <mxCell id="lv-tE8IJ_xCt58kdAHQm-8" value="CHECK IS ACTIVE&lt;div&gt;TOKEN&lt;/div&gt;" style="rounded=0;whiteSpace=wrap;html=1;" vertex="1" parent="1">
          <mxGeometry x="690" y="570" width="120" height="60" as="geometry" />
        </mxCell>
        <mxCell id="lv-tE8IJ_xCt58kdAHQm-21" style="edgeStyle=orthogonalEdgeStyle;rounded=0;orthogonalLoop=1;jettySize=auto;html=1;entryX=0;entryY=0.5;entryDx=0;entryDy=0;" edge="1" parent="1" target="lv-tE8IJ_xCt58kdAHQm-19">
          <mxGeometry relative="1" as="geometry">
            <mxPoint x="330" y="790" as="sourcePoint" />
            <mxPoint x="440" y="910" as="targetPoint" />
            <Array as="points">
              <mxPoint x="330" y="910" />
            </Array>
          </mxGeometry>
        </mxCell>
        <mxCell id="lv-tE8IJ_xCt58kdAHQm-12" value="GENERATE&amp;nbsp;&lt;div&gt;TOKEN&lt;/div&gt;" style="rounded=0;whiteSpace=wrap;html=1;" vertex="1" parent="1">
          <mxGeometry x="270" y="730" width="120" height="60" as="geometry" />
        </mxCell>
        <mxCell id="lv-tE8IJ_xCt58kdAHQm-17" style="edgeStyle=orthogonalEdgeStyle;rounded=0;orthogonalLoop=1;jettySize=auto;html=1;entryX=1;entryY=0.5;entryDx=0;entryDy=0;" edge="1" parent="1" source="lv-tE8IJ_xCt58kdAHQm-15" target="lv-tE8IJ_xCt58kdAHQm-12">
          <mxGeometry relative="1" as="geometry" />
        </mxCell>
        <mxCell id="lv-tE8IJ_xCt58kdAHQm-18" value="NO" style="edgeLabel;html=1;align=center;verticalAlign=middle;resizable=0;points=[];" vertex="1" connectable="0" parent="lv-tE8IJ_xCt58kdAHQm-17">
          <mxGeometry x="0.1" y="3" relative="1" as="geometry">
            <mxPoint x="146" y="-13" as="offset" />
          </mxGeometry>
        </mxCell>
        <mxCell id="lv-tE8IJ_xCt58kdAHQm-20" style="edgeStyle=orthogonalEdgeStyle;rounded=0;orthogonalLoop=1;jettySize=auto;html=1;entryX=1;entryY=0.5;entryDx=0;entryDy=0;" edge="1" parent="1" source="lv-tE8IJ_xCt58kdAHQm-15" target="lv-tE8IJ_xCt58kdAHQm-19">
          <mxGeometry relative="1" as="geometry">
            <Array as="points">
              <mxPoint x="750" y="910" />
            </Array>
          </mxGeometry>
        </mxCell>
        <mxCell id="lv-tE8IJ_xCt58kdAHQm-22" value="YES" style="edgeLabel;html=1;align=center;verticalAlign=middle;resizable=0;points=[];" vertex="1" connectable="0" parent="lv-tE8IJ_xCt58kdAHQm-20">
          <mxGeometry x="-0.5773" y="-1" relative="1" as="geometry">
            <mxPoint y="1" as="offset" />
          </mxGeometry>
        </mxCell>
        <mxCell id="lv-tE8IJ_xCt58kdAHQm-15" value="IS ACTIVE" style="rhombus;whiteSpace=wrap;html=1;" vertex="1" parent="1">
          <mxGeometry x="710" y="720" width="80" height="80" as="geometry" />
        </mxCell>
        <mxCell id="lv-tE8IJ_xCt58kdAHQm-24" style="edgeStyle=orthogonalEdgeStyle;rounded=0;orthogonalLoop=1;jettySize=auto;html=1;" edge="1" parent="1" source="lv-tE8IJ_xCt58kdAHQm-19" target="lv-tE8IJ_xCt58kdAHQm-23">
          <mxGeometry relative="1" as="geometry" />
        </mxCell>
        <mxCell id="lv-tE8IJ_xCt58kdAHQm-19" value="EXECUTE" style="rounded=0;whiteSpace=wrap;html=1;" vertex="1" parent="1">
          <mxGeometry x="480" y="880" width="120" height="60" as="geometry" />
        </mxCell>
        <mxCell id="lv-tE8IJ_xCt58kdAHQm-23" value="END" style="ellipse;whiteSpace=wrap;html=1;aspect=fixed;" vertex="1" parent="1">
          <mxGeometry x="500" y="1030" width="80" height="80" as="geometry" />
        </mxCell>
      </root>
    </mxGraphModel>
  </diagram>
</mxfile>
